<svg xmlns="http://www.w3.org/2000/svg" viewBox="0 0 100 100" width="100" height="100">
  <!-- 锁身 -->
  <rect x="25" y="40" width="50" height="40" rx="10" ry="10" fill="#B5EAD7" stroke="#7AE2B8" stroke-width="3"/>
  
  <!-- 锁盖 -->
  <rect x="35" y="25" width="30" height="15" rx="5" ry="5" fill="#C7CEEA" stroke="#95A5A6" stroke-width="3"/>
  
  <!-- 锁孔 -->
  <circle cx="50" cy="40" r="5" fill="#FF9AA2" stroke="#FF6B7A" stroke-width="2"/>
  
  <!-- 装饰元素 -->
  <rect x="30" y="55" width="40" height="3" rx="1" ry="1" fill="#FFD54F"/>
  <rect x="30" y="65" width="40" height="3" rx="1" ry="1" fill="#FFD54F"/>
  
  <!-- 小星星装饰 -->
  <path d="M35,35 L37,38 L41,38 L38,40 L40,43 L37,41 L34,43 L36,40 L33,38 L37,38 Z" fill="#FFD700"/>
  <path d="M65,35 L67,38 L71,38 L68,40 L70,43 L67,41 L64,43 L66,40 L63,38 L67,38 Z" fill="#FFD700"/>
</svg>