<svg xmlns="http://www.w3.org/2000/svg" viewBox="0 0 100 100" width="100" height="100">
  <!-- 标签主体 -->
  <path d="M30,20 L80,20 C85,20 90,25 90,30 L90,70 C90,75 85,80 80,80 L30,80 C25,80 20,75 20,70 L20,40 C10,45 10,55 20,60 L20,30 C20,25 25,20 30,20 Z" fill="#FFDAC1" stroke="#FFB74D" stroke-width="3"/>
  
  <!-- 标签孔 -->
  <circle cx="40" cy="50" r="15" fill="#FFEAA7" stroke="#FFD54F" stroke-width="2"/>
  
  <!-- 装饰点 -->
  <circle cx="30" cy="35" r="4" fill="#FF7675"/>
  <circle cx="70" cy="35" r="4" fill="#74B9FF"/>
  <circle cx="30" cy="65" r="4" fill="#55EFc4"/>
  <circle cx="70" cy="65" r="4" fill="#A29BFE"/>
  
  <!-- 笑脸 -->
  <circle cx="40" cy="47" r="3" fill="#000"/>
  <path d="M36,55 Q40,60 44,55" fill="none" stroke="#000" stroke-width="2"/>
</svg>